<svg width="12" height="17" viewBox="0 0 12 17" fill="none" xmlns="http://www.w3.org/2000/svg">
<path d="M6 0.515137C2.65625 0.515137 0 3.20264 0 6.51514C0 8.95264 0.8125 9.64014 5.375 16.2026C5.53125 16.4214 5.75 16.5151 6 16.5151C6.21875 16.5151 6.4375 16.4214 6.59375 16.2026C11.1562 9.64014 12 8.95264 12 6.51514C12 3.20264 9.3125 0.515137 6 0.515137ZM6 14.4526C5.4375 13.6714 4.9375 12.9526 4.5 12.3589C1.78125 8.48389 1.5 7.98389 1.5 6.51514C1.5 4.04639 3.5 2.01514 6 2.01514C8.46875 2.01514 10.5 4.04639 10.5 6.51514C10.5 7.98389 10.1875 8.48389 7.46875 12.3589C7.03125 12.9526 6.53125 13.6714 6 14.4526ZM6 4.01514C4.59375 4.01514 3.5 5.14014 3.5 6.51514C3.5 7.92139 4.59375 9.01514 6 9.01514C7.375 9.01514 8.5 7.92139 8.5 6.51514C8.5 5.14014 7.375 4.01514 6 4.01514ZM6 7.51514C5.4375 7.51514 5 7.07764 5 6.51514C5 5.98389 5.4375 5.51514 6 5.51514C6.53125 5.51514 7 5.98389 7 6.51514C7 7.07764 6.53125 7.51514 6 7.51514Z" fill="#FFC947"/>
</svg>
