<svg width="16" height="13" viewBox="0 0 16 13" fill="none" xmlns="http://www.w3.org/2000/svg">
<path d="M14 0.515137H2C0.875 0.515137 0 1.42139 0 2.51514V10.5151C0 11.6401 0.875 12.5151 2 12.5151H14C15.0938 12.5151 16 11.6401 16 10.5151V2.51514C16 1.42139 15.0938 0.515137 14 0.515137ZM2 2.01514H14C14.25 2.01514 14.5 2.26514 14.5 2.51514V3.23389L9.28125 7.57764C8.5625 8.17139 7.40625 8.17139 6.6875 7.57764L1.5 3.23389V2.51514C1.5 2.26514 1.71875 2.01514 2 2.01514ZM14 11.0151H2C1.71875 11.0151 1.5 10.7964 1.5 10.5151V5.17139L5.75 8.73389C6.375 9.23389 7.15625 9.54639 8 9.54639C8.8125 9.54639 9.59375 9.23389 10.2188 8.73389L14.5 5.17139V10.5151C14.5 10.7964 14.25 11.0151 14 11.0151Z" fill="#FFC947"/>
</svg>
