<svg width="12" height="17" viewBox="0 0 12 17" fill="none" xmlns="http://www.w3.org/2000/svg">
<path d="M9.5 0.515137H2.5C1.375 0.515137 0.5 1.42139 0.5 2.51514V14.5151C0.5 15.6401 1.375 16.5151 2.5 16.5151H9.5C10.5938 16.5151 11.5 15.6401 11.5 14.5151V2.51514C11.5 1.42139 10.5938 0.515137 9.5 0.515137ZM10 14.5151C10 14.7964 9.75 15.0151 9.5 15.0151H2.5C2.21875 15.0151 2 14.7964 2 14.5151V2.51514C2 2.26514 2.21875 2.01514 2.5 2.01514H9.5C9.75 2.01514 10 2.26514 10 2.51514V14.5151ZM7 13.0151H5C4.71875 13.0151 4.5 13.2651 4.5 13.5151C4.5 13.7964 4.71875 14.0151 5 14.0151H7C7.25 14.0151 7.5 13.7964 7.5 13.5151C7.5 13.2651 7.25 13.0151 7 13.0151Z" fill="#FFC947"/>
</svg>
