<svg width="17" height="11" viewBox="0 0 17 11" fill="none" xmlns="http://www.w3.org/2000/svg">
<path d="M10.4688 10.6592C10.75 10.9404 11.2188 10.9404 11.5 10.6592L15.75 6.40918C16.0625 6.09668 16.0625 5.62793 15.75 5.34668L11.5 1.09668C11.2188 0.78418 10.75 0.78418 10.4688 1.09668C10.1562 1.37793 10.1562 1.84668 10.4688 2.15918L13.4375 5.12793H0.75C0.3125 5.12793 0 5.44043 0 5.87793C0 6.28418 0.3125 6.62793 0.75 6.62793H13.4375L10.4688 9.59668C10.3125 9.72168 10.25 9.94043 10.25 10.1279C10.25 10.3154 10.3125 10.5029 10.4688 10.6592Z" fill="#166533"/>
</svg>
